<svg width="20" height="22" viewBox="0 0 20 22" fill="none" xmlns="http://www.w3.org/2000/svg">
<path d="M19.9209 11.2239C19.9209 10.5523 19.8629 9.91476 19.7634 9.29419H10.3948V13.1281H15.7589C15.5185 14.3863 14.8138 15.4489 13.7692 16.1715V18.7218H16.9694C18.8431 16.9451 19.9209 14.3268 19.9209 11.2239Z" fill="#2A3E34"/>
<path d="M10.3948 21.1955C13.081 21.1955 15.3277 20.2774 16.9693 18.7218L13.7691 16.1715C12.8737 16.7835 11.7379 17.1576 10.3948 17.1576C7.79976 17.1576 5.60271 15.3639 4.81509 12.9411H1.51538V15.5679C3.14866 18.9003 6.5064 21.1955 10.3948 21.1955Z" fill="#2A3E34"/>
<path d="M4.81502 12.9411C4.60775 12.329 4.49997 11.6744 4.49997 10.9944C4.49997 10.3143 4.61604 9.65971 4.81502 9.04764V6.42084H1.5153C0.835464 7.79799 0.445801 9.34517 0.445801 10.9944C0.445801 12.6435 0.835464 14.1907 1.5153 15.5679L4.81502 12.9411Z" fill="#2A3E34"/>
<path d="M10.3948 4.83117C11.8622 4.83117 13.1722 5.34973 14.2085 6.36135L17.0439 3.45402C15.3277 1.80483 13.081 0.793213 10.3948 0.793213C6.5064 0.793213 3.14866 3.08848 1.51538 6.42085L4.81509 9.04765C5.60271 6.62488 7.79976 4.83117 10.3948 4.83117Z" fill="#2A3E34"/>
</svg>
