<svg width="25" height="25" viewBox="0 0 25 25" fill="none" xmlns="http://www.w3.org/2000/svg">
<g clip-path="url(#clip0_40_908)">
<path d="M9.375 16.6667C10.2608 17.3233 11.3381 17.7084 12.5 17.7084C13.6619 17.7084 14.7392 17.3233 15.625 16.6667" stroke="white" stroke-width="2.97183" stroke-linecap="round"/>
<path d="M22.5374 13.4979L22.2471 15.5159C21.7393 19.0445 21.4854 20.8088 20.2615 21.8627C19.0374 22.9167 17.2423 22.9167 13.6522 22.9167H11.3478C7.75768 22.9167 5.9626 22.9167 4.73858 21.8627C3.51455 20.8088 3.26068 19.0445 2.75297 15.5159L2.46258 13.4979C2.06733 10.7509 1.86971 9.37743 2.43268 8.20311C2.99566 7.02879 4.19396 6.31498 6.59054 4.88734L8.03308 4.02803C10.2094 2.73159 11.2976 2.08337 12.5 2.08337C13.7024 2.08337 14.7906 2.73159 16.9669 4.02803L18.4095 4.88734C20.806 6.31498 22.0044 7.02879 22.5673 8.20311" stroke="white" stroke-width="2.97183" stroke-linecap="round"/>
</g>
<defs>
<clipPath id="clip0_40_908">
<rect width="25" height="25" fill="white"/>
</clipPath>
</defs>
</svg>
