<svg width="29" height="29" viewBox="0 0 29 29" fill="none" xmlns="http://www.w3.org/2000/svg">
<path fill-rule="evenodd" clip-rule="evenodd" d="M15.0727 3.75182C14.8933 3.66846 14.6978 3.62527 14.5 3.62527C14.3021 3.62527 14.1067 3.66846 13.9272 3.75182L1.23972 9.64245C1.00493 9.75169 0.806229 9.92572 0.666997 10.1441C0.527764 10.3624 0.453796 10.616 0.453796 10.8749C0.453796 11.1339 0.527764 11.3875 0.666997 11.6058C0.806229 11.8242 1.00493 11.9982 1.23972 12.1074L3.83885 13.3146C3.69875 13.5331 3.6245 13.7873 3.62497 14.0468V19.9374C3.62516 20.2395 3.72592 20.5328 3.91135 20.7712L3.91316 20.7748L3.91497 20.7766L3.92041 20.7839L3.93491 20.802C3.99406 20.8771 4.05635 20.9497 4.1216 21.0195C4.24485 21.1573 4.42066 21.3421 4.65085 21.5614C5.11122 21.9964 5.79272 22.5674 6.7026 23.1311C8.5296 24.2657 11.2683 25.3749 14.9531 25.3749C18.6452 25.3749 21.1881 24.2603 22.8284 23.0803C23.4847 22.6116 24.0796 22.0623 24.5992 21.4454C24.8126 21.1888 25.0076 20.9175 25.1828 20.6334L25.1955 20.6117L25.201 20.6044V20.6008C25.201 20.599 25.2028 20.5972 24.0156 19.9374L25.2028 20.599C25.3153 20.3966 25.3745 20.169 25.375 19.9374V14.0468C25.3753 13.7873 25.3011 13.5331 25.1611 13.3146L27.7602 12.1074C27.995 11.9982 28.1937 11.8242 28.3329 11.6058C28.4722 11.3875 28.5461 11.1339 28.5461 10.8749C28.5461 10.616 28.4722 10.3624 28.3329 10.1441C28.1937 9.92572 27.995 9.75169 27.7602 9.64245L15.0727 3.75182ZM22.6562 14.4782L15.0727 17.9981C14.8933 18.0814 14.6978 18.1246 14.5 18.1246C14.3021 18.1246 14.1067 18.0814 13.9272 17.9981L6.34372 14.4782V19.4136C6.88697 19.9485 7.48891 20.4204 8.1381 20.8201C9.59535 21.7264 11.841 22.6562 14.9531 22.6562C18.0579 22.6562 20.0462 21.7318 21.2388 20.8727C21.773 20.4921 22.2502 20.0375 22.6562 19.5224V14.4782ZM14.5 15.2666L5.04053 10.8749L14.5 6.48326L23.9594 10.8749L14.5 15.2666Z" fill="white"/>
</svg>
