<svg width="26" height="26" viewBox="0 0 26 26" fill="none" xmlns="http://www.w3.org/2000/svg">
<g clip-path="url(#clip0_1_218)">
<path d="M23.4812 7.63743C23.4812 7.55618 23.5625 7.47493 23.5625 7.39368C23.5625 7.39368 23.5625 7.39368 23.5625 7.31243C23.5625 7.31243 23.5625 7.31243 23.5625 7.23118C23.5625 7.14993 23.5625 7.06868 23.5625 6.98743C23.5625 6.98743 23.5625 6.98743 23.5625 6.90618C23.5625 6.82493 23.4812 6.74368 23.4812 6.66243C23.4 6.58118 23.4 6.58118 23.3188 6.49993L14.3813 0.812427C14.1375 0.649927 13.7313 0.649927 13.4875 0.812427L2.925 8.12493L2.84375 8.20618C2.84375 8.20618 2.84375 8.20618 2.7625 8.20618C2.68125 8.28743 2.68125 8.36868 2.6 8.44993C2.6 8.44993 2.6 8.44993 2.6 8.53118C2.4375 8.77493 2.4375 8.85618 2.4375 8.93743V13.8124V18.6874C2.4375 18.9312 2.6 19.2562 2.84375 19.3374L11.7812 25.0249C11.9438 25.1062 12.1062 25.1874 12.1875 25.1874C12.35 25.1874 12.5125 25.1062 12.675 25.0249L23.2375 17.7124C23.4 17.5499 23.5625 17.3874 23.5625 17.1437C23.5625 16.8999 23.4813 16.6562 23.3188 16.4937C22.5875 15.7624 22.425 14.7062 22.9125 13.7312L23.4812 12.5124C23.4812 12.4312 23.5625 12.3499 23.5625 12.2687V12.1874C23.5625 12.1062 23.5625 11.9437 23.4812 11.8624V11.7812C23.4812 11.6999 23.4 11.6187 23.3188 11.5374C22.5875 10.8062 22.425 9.74993 22.9125 8.77493L23.4812 7.63743ZM21.6125 12.0249L12.1875 18.5249L4.0625 13.4062V10.4812L11.7812 15.3562C11.9438 15.4374 12.1062 15.5187 12.1875 15.5187C12.35 15.5187 12.5125 15.4374 12.675 15.3562L21.0437 9.58743C20.9625 10.3999 21.125 11.2124 21.6125 12.0249ZM12.1875 23.3999L4.0625 18.2812V15.3562L11.7812 20.2312C11.9438 20.3124 12.1062 20.3937 12.1875 20.3937C12.35 20.3937 12.5125 20.3124 12.675 20.2312L21.0437 14.4624C20.9625 15.3562 21.125 16.2499 21.6125 16.9812L12.1875 23.3999Z" fill="white"/>
</g>
<defs>
<clipPath id="clip0_1_218">
<rect width="26" height="26" fill="white"/>
</clipPath>
</defs>
</svg>
