<svg width="102" height="73" viewBox="0 0 102 73" fill="none" xmlns="http://www.w3.org/2000/svg">
<path d="M51.3231 64.2926C51.3231 65.8127 50.8605 67.1234 49.9353 68.2249C48.6355 67.564 47.3468 66.9031 46.069 66.2422C45.4082 65.8677 45.0777 65.4822 45.0777 65.0857C45.0777 65.6144 45.4742 64.2596 46.2673 61.0212C46.8401 61.4838 47.9416 62.0896 49.5718 62.8386C50.7394 63.3674 51.3231 63.852 51.3231 64.2926ZM55.9164 52C53.5371 52 51.6206 50.7994 50.1666 48.3981C48.7567 46.085 47.9306 42.9127 47.6882 38.8813C47.6001 37.4273 47.1375 35.2133 46.3004 32.2393C46.2122 33.2747 45.8047 34.949 45.0777 37.2621C44.3948 38.65 43.778 39.5752 43.2272 40.0378C42.9408 40.2802 42.313 40.5665 41.3437 40.897C41.3437 41.0071 41.4758 41.657 41.7402 42.8466C42.0046 44.0362 42.1367 44.7742 42.1367 45.0606C42.2028 47.7923 41.8283 50.1385 41.0132 52.0991C40.4184 53.5531 37.6206 56.0425 32.6199 59.5672C27.6411 63.114 22.6844 66.1101 17.7498 68.5554C16.0755 68.996 10.5901 70.1415 1.29353 71.992C0.478428 72.1462 0.0708769 72.0691 0.0708769 71.7607C0.0708769 71.6506 0.225085 71.5404 0.533502 71.4303C7.3407 68.6986 14.192 65.4822 21.0873 61.7812C23.2682 60.7018 26.7049 58.7411 31.3972 55.8993C33.4019 54.4894 35.4177 53.0684 37.4444 51.6365C39.5592 50.0283 40.6167 48.8057 40.6167 47.9686C40.6167 46.4926 39.8897 44.4438 38.4357 41.8222C36.9818 39.2007 36.2548 37.8679 36.2548 37.8238C36.2548 36.2157 36.4531 34.6956 36.8496 33.2637C37.2682 33.2637 37.8079 33.7483 38.4688 34.7176C39.1517 35.6649 39.8567 36.1386 40.5836 36.1386C42.6104 36.1386 43.9322 35.1803 44.549 33.2637C44.7913 31.6335 45.0447 30.0033 45.309 28.3731C45.4853 27.8223 45.9259 27.2495 46.6308 26.6547C47.1816 27.2275 47.6221 28.1087 47.9526 29.2983C48.3932 30.8184 49.0651 34.1118 49.9683 39.1787C50.8936 44.2455 52.8762 46.9772 55.9164 47.3737V52ZM63.5166 31.1158C63.5166 32.6358 63.076 33.9576 62.1948 35.0811C60.8951 34.3982 59.5953 33.7153 58.2956 33.0324C57.6567 32.6799 57.3373 32.3054 57.3373 31.9088C57.3373 32.041 57.7338 30.6752 58.5269 27.8113C59.0997 28.2739 60.1901 28.8908 61.7983 29.6618C62.9439 30.1905 63.5166 30.6752 63.5166 31.1158ZM68.5394 52C67.8785 52 67.0194 51.7356 65.9619 51.2069C64.7283 50.5901 63.825 49.8631 63.2523 49.026C62.7896 48.321 62.5914 47.4509 62.6575 46.4155C61.6882 48.3981 60.9061 49.6759 60.3113 50.2486C59.0997 51.4162 57.6457 52 55.9494 52V47.3737C58.0202 47.3737 59.5513 47.0213 60.5426 46.3163C60.807 46.1401 61.1374 45.6664 61.5339 44.8954C61.9966 43.9922 62.2719 43.4855 62.3601 43.3753C63.4616 41.9434 64.0123 41.657 64.0123 42.5162C64.0123 42.8246 63.9242 43.2321 63.7479 43.7388C63.8581 44.0473 64.0343 44.4328 64.2767 44.8954C64.541 45.336 65.1799 45.8647 66.1932 46.4815C67.2066 47.0763 67.9887 47.3737 68.5394 47.3737V52ZM89.3576 50.546C89.3576 53.5861 87.9697 55.1282 85.1939 55.1723C82.4622 55.2163 80.083 53.465 78.0563 49.9182C76.4922 50.4028 74.917 50.8765 73.3309 51.3391C71.7668 51.7797 70.1806 52 68.5725 52V47.3737C71.4143 47.3737 74.0469 46.9332 76.4701 46.052C76.0075 44.8183 75.4237 42.8356 74.7188 40.1039C74.124 36.5571 73.2318 29.7609 72.0422 19.7154C71.954 18.6139 71.7337 15.2323 71.3813 9.57065C71.183 9.04194 70.9186 8.30394 70.5882 7.35666C70.7644 6.84998 71.1059 5.83661 71.6126 4.31655C71.7448 3.69972 71.9981 3.69972 72.3726 4.31655C74.9941 8.48018 76.3049 11.1127 76.3049 12.2142C76.3049 12.8971 76.2058 13.2386 76.0075 13.2386C75.8753 13.2166 75.7542 13.1174 75.644 12.9412C74.8069 11.9278 74.157 11.3661 73.6944 11.2559L75.9414 31.4793C76.6243 37.3172 77.6047 41.9104 78.8824 45.2589C81.0413 44.6641 82.7817 44.3887 84.1035 44.4328C86.3285 44.5209 87.8045 45.1157 88.5314 46.2172C89.0822 47.0103 89.3576 48.4532 89.3576 50.546ZM87.2427 50.546C87.2868 50.1495 86.9894 49.786 86.3505 49.4556C85.6015 49.0811 84.6322 48.8938 83.4426 48.8938C82.7596 48.8938 82.0437 48.9599 81.2947 49.0921C82.1758 49.8851 82.9249 50.3918 83.5417 50.6121C83.6518 50.6562 84.3017 50.7884 85.4913 51.0087C86.3725 51.1629 86.9563 51.0087 87.2427 50.546ZM101.848 41.2935C101.937 42.395 101.981 43.4635 101.981 44.4989C101.981 48.1558 101.551 50.7884 100.692 52.3965C100.361 53.0134 100.119 53.3218 99.9649 53.3218C99.7226 53.3218 99.6895 52.6168 99.8658 51.2069C100.086 49.4225 100.097 47.561 99.8988 45.6224C99.1057 39.3219 98.0042 29.8491 96.5943 17.204C96.4181 14.8908 96.1207 11.5533 95.7021 7.19144C95.636 6.94911 95.3386 6.29923 94.8099 5.2418C94.6777 4.99948 95.0302 3.60058 95.8674 1.04513C95.9114 0.890922 95.9775 0.813818 96.0656 0.813818C96.2859 0.813818 96.5943 1.28746 96.9909 2.23474C97.6738 3.6887 98.3457 5.14267 99.0066 6.59663C100.064 8.84367 100.593 10.2426 100.593 10.7933C100.593 10.9695 100.527 11.0577 100.394 11.0577C100.306 11.0577 100.163 10.9916 99.9649 10.8594C99.4142 10.4408 98.8304 9.91212 98.2135 9.27325C98.1695 9.89009 98.6211 13.9436 99.5684 21.4337C100.714 30.3557 101.474 36.9757 101.848 41.2935Z" fill="#2A3E34"/>
</svg>
