<svg width="27" height="27" viewBox="0 0 27 27" fill="none" xmlns="http://www.w3.org/2000/svg">
<path d="M24.7499 13.5C24.7499 7.30122 19.6987 2.24997 13.4999 2.24997C7.30119 2.24997 2.24994 7.30122 2.24994 13.5C2.24994 16.7625 3.65619 19.6987 5.88369 21.7575C5.88369 21.7687 5.88369 21.7687 5.87244 21.78C5.98494 21.8925 6.11994 21.9825 6.23244 22.0837C6.29994 22.14 6.35619 22.1962 6.42369 22.2412C6.62619 22.41 6.85119 22.5675 7.06494 22.725C7.14369 22.7812 7.21119 22.8262 7.28994 22.8825C7.50369 23.0287 7.72869 23.1637 7.96494 23.2875C8.04369 23.3325 8.13369 23.3887 8.21244 23.4337C8.43744 23.5575 8.67369 23.67 8.92119 23.7712C9.01119 23.8162 9.10119 23.8612 9.19119 23.895C9.43869 23.9962 9.68619 24.0862 9.93369 24.165C10.0237 24.1987 10.1137 24.2325 10.2037 24.255C10.4737 24.3337 10.7437 24.4012 11.0137 24.4687C11.0924 24.4912 11.1712 24.5137 11.2612 24.525C11.5762 24.5925 11.8912 24.6375 12.2174 24.6712C12.2624 24.6712 12.3074 24.6825 12.3524 24.6937C12.7349 24.7275 13.1174 24.75 13.4999 24.75C13.8824 24.75 14.2649 24.7275 14.6362 24.6937C14.6812 24.6937 14.7262 24.6825 14.7712 24.6712C15.0974 24.6375 15.4124 24.5925 15.7274 24.525C15.8062 24.5137 15.8849 24.48 15.9749 24.4687C16.2449 24.4012 16.5262 24.345 16.7849 24.255C16.8749 24.2212 16.9649 24.1875 17.0549 24.165C17.3024 24.075 17.5612 23.9962 17.7974 23.895C17.8874 23.8612 17.9774 23.8162 18.0674 23.7712C18.3037 23.67 18.5399 23.5575 18.7762 23.4337C18.8662 23.3887 18.9449 23.3325 19.0237 23.2875C19.2487 23.1525 19.4737 23.0287 19.6987 22.8825C19.7774 22.8375 19.8449 22.7812 19.9237 22.725C20.1487 22.5675 20.3624 22.41 20.5649 22.2412C20.6324 22.185 20.6887 22.1287 20.7562 22.0837C20.8799 21.9825 21.0037 21.8812 21.1162 21.78C21.1162 21.7687 21.1162 21.7687 21.1049 21.7575C23.3437 19.6987 24.7499 16.7625 24.7499 13.5ZM19.0574 19.0912C16.0087 17.0437 11.0137 17.0437 7.94244 19.0912C7.44744 19.4175 7.04244 19.8 6.70494 20.2162C4.99494 18.4837 3.93744 16.11 3.93744 13.5C3.93744 8.22372 8.22369 3.93747 13.4999 3.93747C18.7762 3.93747 23.0624 8.22372 23.0624 13.5C23.0624 16.11 22.0049 18.4837 20.2949 20.2162C19.9687 19.8 19.5524 19.4175 19.0574 19.0912Z" fill="white"/>
<path d="M13.5 7.79581C11.1712 7.79581 9.28125 9.68581 9.28125 12.0146C9.28125 14.2983 11.07 16.1546 13.4437 16.2221C13.4775 16.2221 13.5225 16.2221 13.545 16.2221C13.5675 16.2221 13.6012 16.2221 13.6237 16.2221C13.635 16.2221 13.6462 16.2221 13.6462 16.2221C15.9187 16.1433 17.7075 14.2983 17.7187 12.0146C17.7187 9.68581 15.8287 7.79581 13.5 7.79581Z" fill="white"/>
</svg>
