<svg width="25" height="25" viewBox="0 0 25 25" fill="none" xmlns="http://www.w3.org/2000/svg">
<g clip-path="url(#clip0_1_224)">
<path fill-rule="evenodd" clip-rule="evenodd" d="M22.2223 9.97772C22.2223 4.36105 17.8612 -6.10352e-05 12.5001 -6.10352e-05C7.13894 -6.10352e-05 2.77783 4.36105 2.77783 9.72216C1.16255 10.5513 5.34058e-05 12.0777 5.34058e-05 13.8888V16.6666C5.43594e-05 17.7717 0.439041 18.8315 1.22044 19.6129C2.00184 20.3943 3.06165 20.8333 4.16672 20.8333H5.55561C5.92397 20.8333 6.27723 20.6869 6.5377 20.4265C6.79817 20.166 6.9445 19.8127 6.9445 19.4444V11.111C6.9445 10.7427 6.79817 10.3894 6.5377 10.129C6.27723 9.86849 5.92397 9.72216 5.55561 9.72216C5.55561 7.88038 6.28725 6.11403 7.58959 4.8117C8.89193 3.50936 10.6583 2.77772 12.5001 2.77772C14.3418 2.77772 16.1082 3.50936 17.4105 4.8117C18.7129 6.11403 19.4445 7.88038 19.4445 9.72216C19.0761 9.72216 18.7229 9.86849 18.4624 10.129C18.2019 10.3894 18.0556 10.7427 18.0556 11.111V19.4444C18.0556 19.8127 18.2019 20.166 18.4624 20.4265C18.7229 20.6869 19.0761 20.8333 19.4445 20.8333V22.2222H15.8445C15.5584 21.4152 14.7945 20.8333 13.8889 20.8333H11.1112C10.5586 20.8333 10.0287 21.0528 9.63803 21.4435C9.24732 21.8342 9.02783 22.3641 9.02783 22.9166C9.02783 23.4691 9.24732 23.999 9.63803 24.3897C10.0287 24.7804 10.5586 24.9999 11.1112 24.9999H19.4445C20.1812 24.9999 20.8877 24.7073 21.4087 24.1863C21.9296 23.6654 22.2223 22.9589 22.2223 22.2222V20.5791C23.033 20.2942 23.7354 19.765 24.2329 19.0643C24.7304 18.3636 24.9984 17.5259 25.0001 16.6666V13.8888C24.9985 13.0296 24.7305 12.1921 24.233 11.4916C23.7355 10.7911 23.033 10.2622 22.2223 9.97772L-9.72217 86.111L22.2223 9.97772Z" fill="white"/>
</g>
<defs>
<clipPath id="clip0_1_224">
<rect width="25" height="25" fill="white"/>
</clipPath>
</defs>
</svg>
